<?xml version="1.0" ?><svg viewBox="0 0 32 32" xmlns="http://www.w3.org/2000/svg"><title/><g id="pizza"><path d="M22.61,24.15l-.39-.08L21.94,24A18.74,18.74,0,0,1,8,10.08L7.93,9.8c0-.14-.06-.27-.08-.42a3.74,3.74,0,0,0-1-1.93,3,3,0,0,0-2.28-.92,2.59,2.59,0,0,0-1.9,1A3.63,3.63,0,0,0,2,10.5,24.44,24.44,0,0,0,21.49,30a3.9,3.9,0,0,0,.77.08,3.45,3.45,0,0,0,2.45-1,2.51,2.51,0,0,0,.76-1.65A3.34,3.34,0,0,0,22.61,24.15Z"/><path d="M29.53,2.48a1,1,0,0,0-1-.24L8.7,8.69a4.63,4.63,0,0,1,.14.5c0,.14.14.68.14.68A17.71,17.71,0,0,0,22.17,23l.62.13a4.89,4.89,0,0,1,.53.15L29.77,3.5A1,1,0,0,0,29.53,2.48ZM23.5,5a.5.5,0,1,1-.5.5A.5.5,0,0,1,23.5,5Zm-1.62,9a.88.88,0,1,1-.87-.87A.88.88,0,0,1,21.88,14ZM13.5,14A2.5,2.5,0,1,1,16,11.5,2.5,2.5,0,0,1,13.5,14ZM17,18a1,1,0,1,1,1-1A1,1,0,0,1,17,18Zm1-9.5A1.5,1.5,0,1,1,19.5,10,1.5,1.5,0,0,1,18,8.5ZM21.5,21A1.5,1.5,0,1,1,23,19.5,1.5,1.5,0,0,1,21.5,21ZM25,14.5a.5.5,0,1,1,.5-.5A.5.5,0,0,1,25,14.5Zm-.5-3a2,2,0,1,1,2-2A2,2,0,0,1,24.5,11.5ZM27,6a1,1,0,1,1,1-1A1,1,0,0,1,27,6Z"/></g></svg>